<svg xmlns="http://www.w3.org/2000/svg" viewBox="0 0 480 275" role="img">
  <text x="20" y="28" font-family="-apple-system,Segoe UI,Helvetica,Arial,sans-serif" font-size="16" font-weight="700" fill="#059669">Most used languages</text>
  <text x="20" y="67" font-family="-apple-system,Segoe UI,Helvetica,Arial,sans-serif" font-size="13" fill="#0F172A">Python</text>
  <rect x="200" y="55" width="240" height="14" rx="7" fill="#E2E8F0"/>
  <rect x="200" y="55" width="159" height="14" rx="7" fill="#3776AB"/>
  <text x="448" y="67" font-family="-apple-system,Segoe UI,Helvetica,Arial,sans-serif" font-size="12" fill="#475569">66.6%</text>
  <text x="20" y="97" font-family="-apple-system,Segoe UI,Helvetica,Arial,sans-serif" font-size="13" fill="#0F172A">Jupyter Notebook</text>
  <rect x="200" y="85" width="240" height="14" rx="7" fill="#E2E8F0"/>
  <rect x="200" y="85" width="60" height="14" rx="7" fill="#DA5B0B"/>
  <text x="448" y="97" font-family="-apple-system,Segoe UI,Helvetica,Arial,sans-serif" font-size="12" fill="#475569">25.1%</text>
  <text x="20" y="127" font-family="-apple-system,Segoe UI,Helvetica,Arial,sans-serif" font-size="13" fill="#0F172A">Rust</text>
  <rect x="200" y="115" width="240" height="14" rx="7" fill="#E2E8F0"/>
  <rect x="200" y="115" width="13" height="14" rx="7" fill="#DEA584"/>
  <text x="448" y="127" font-family="-apple-system,Segoe UI,Helvetica,Arial,sans-serif" font-size="12" fill="#475569">5.7%</text>
  <text x="20" y="157" font-family="-apple-system,Segoe UI,Helvetica,Arial,sans-serif" font-size="13" fill="#0F172A">JavaScript</text>
  <rect x="200" y="145" width="240" height="14" rx="7" fill="#E2E8F0"/>
  <rect x="200" y="145" width="1" height="14" rx="7" fill="#F7DF1E"/>
  <text x="448" y="157" font-family="-apple-system,Segoe UI,Helvetica,Arial,sans-serif" font-size="12" fill="#475569">0.8%</text>
  <text x="20" y="187" font-family="-apple-system,Segoe UI,Helvetica,Arial,sans-serif" font-size="13" fill="#0F172A">C++</text>
  <rect x="200" y="175" width="240" height="14" rx="7" fill="#E2E8F0"/>
  <rect x="200" y="175" width="1" height="14" rx="7" fill="#F34B7D"/>
  <text x="448" y="187" font-family="-apple-system,Segoe UI,Helvetica,Arial,sans-serif" font-size="12" fill="#475569">0.8%</text>
  <text x="20" y="217" font-family="-apple-system,Segoe UI,Helvetica,Arial,sans-serif" font-size="13" fill="#0F172A">Shell</text>
  <rect x="200" y="205" width="240" height="14" rx="7" fill="#E2E8F0"/>
  <rect x="200" y="205" width="1" height="14" rx="7" fill="#89E051"/>
  <text x="448" y="217" font-family="-apple-system,Segoe UI,Helvetica,Arial,sans-serif" font-size="12" fill="#475569">0.7%</text>
  <text x="20" y="247" font-family="-apple-system,Segoe UI,Helvetica,Arial,sans-serif" font-size="13" fill="#0F172A">HTML</text>
  <rect x="200" y="235" width="240" height="14" rx="7" fill="#E2E8F0"/>
  <rect x="200" y="235" width="0" height="14" rx="7" fill="#E34F26"/>
  <text x="448" y="247" font-family="-apple-system,Segoe UI,Helvetica,Arial,sans-serif" font-size="12" fill="#475569">0.2%</text>
  <text x="20" y="277" font-family="-apple-system,Segoe UI,Helvetica,Arial,sans-serif" font-size="13" fill="#0F172A">Dockerfile</text>
  <rect x="200" y="265" width="240" height="14" rx="7" fill="#E2E8F0"/>
  <rect x="200" y="265" width="0" height="14" rx="7" fill="#384d54"/>
  <text x="448" y="277" font-family="-apple-system,Segoe UI,Helvetica,Arial,sans-serif" font-size="12" fill="#475569">0.2%</text>
</svg>